<svg width="25" height="24" viewBox="0 0 25 24" fill="none" xmlns="http://www.w3.org/2000/svg">
<g clip-path="url(#clip0_18_394)">
<path d="M24.6 12C24.6 5.37258 19.2274 0 12.6 0C5.97255 0 0.599976 5.37258 0.599976 12C0.599976 17.9895 4.98818 22.954 10.725 23.8542V15.4687H7.6781V12H10.725V9.35625C10.725 6.34875 12.5165 4.6875 15.2576 4.6875C16.5701 4.6875 17.9437 4.92187 17.9437 4.92187V7.875H16.4306C14.94 7.875 14.475 8.80008 14.475 9.75V12H17.8031L17.2711 15.4687H14.475V23.8542C20.2118 22.954 24.6 17.9895 24.6 12Z" fill="white"/>
</g>
<defs>
<clipPath id="clip0_18_394">
<rect width="24" height="24" fill="white" transform="translate(0.599976)"/>
</clipPath>
</defs>
</svg>
