<svg width="25" height="24" viewBox="0 0 25 24" fill="none" xmlns="http://www.w3.org/2000/svg">
<path d="M12.6001 15C14.257 15 15.6001 13.6569 15.6001 12C15.6001 10.3431 14.257 9 12.6001 9C10.9432 9 9.6001 10.3431 9.6001 12C9.6001 13.6569 10.9432 15 12.6001 15Z" fill="#999999"/>
<path fill-rule="evenodd" clip-rule="evenodd" d="M1.92351 11.4467C3.41076 6.97571 7.62801 3.75 12.6006 3.75C17.5709 3.75 21.7865 6.97271 23.2756 11.4405C23.396 11.8015 23.3961 12.1922 23.276 12.5533C21.7887 17.0243 17.5715 20.25 12.5989 20.25C7.62857 20.25 3.41293 17.0273 1.92384 12.5595C1.80349 12.1985 1.80338 11.8078 1.92351 11.4467ZM17.8501 12C17.8501 14.8995 15.4996 17.25 12.6001 17.25C9.7006 17.25 7.3501 14.8995 7.3501 12C7.3501 9.1005 9.7006 6.75 12.6001 6.75C15.4996 6.75 17.8501 9.1005 17.8501 12Z" fill="#999999"/>
</svg>
