<svg width="28" height="28" viewBox="0 0 28 28" fill="none" xmlns="http://www.w3.org/2000/svg">
<path d="M22.2997 6.57523C26.4002 10.6757 26.4002 17.324 22.2997 21.4245M19.2064 9.66892C21.5984 12.0609 21.5984 15.939 19.2064 18.331M7.875 9.62491L13.3813 4.11863C13.9325 3.56741 14.875 3.95781 14.875 4.73735V23.2625C14.875 24.042 13.9325 24.4324 13.3813 23.8812L7.875 18.3749H5.26056C4.23466 18.3749 3.27356 17.784 3.0011 16.795C2.75595 15.905 2.625 14.9678 2.625 13.9999C2.625 13.0321 2.75595 12.0948 3.0011 11.2049C3.27356 10.2158 4.23466 9.62491 5.26056 9.62491H7.875Z" stroke="white" stroke-width="2" stroke-linecap="round" stroke-linejoin="round"/>
</svg>
