<svg width="25" height="24" viewBox="0 0 25 24" fill="none" xmlns="http://www.w3.org/2000/svg">
<g clip-path="url(#clip0_11_571)">
<path d="M11.9624 7H13.9624V9H11.9624V7ZM11.9624 11H13.9624V17H11.9624V11ZM12.9624 2C7.4424 2 2.9624 6.48 2.9624 12C2.9624 17.52 7.4424 22 12.9624 22C18.4824 22 22.9624 17.52 22.9624 12C22.9624 6.48 18.4824 2 12.9624 2ZM12.9624 20C8.5524 20 4.9624 16.41 4.9624 12C4.9624 7.59 8.5524 4 12.9624 4C17.3724 4 20.9624 7.59 20.9624 12C20.9624 16.41 17.3724 20 12.9624 20Z" fill="#303030"/>
</g>
<defs>
<clipPath id="clip0_11_571">
<rect width="24" height="24" fill="white" transform="translate(0.962402)"/>
</clipPath>
</defs>
</svg>
