<svg width="32" height="32" viewBox="0 0 32 32" fill="none" xmlns="http://www.w3.org/2000/svg">
<path d="M16 2.66663C8.63996 2.66663 2.66663 8.63996 2.66663 16C2.66663 23.36 8.63996 29.3333 16 29.3333C23.36 29.3333 29.3333 23.36 29.3333 16C29.3333 8.63996 23.36 2.66663 16 2.66663ZM16 7.99996C18.5733 7.99996 20.6666 10.0933 20.6666 12.6666C20.6666 15.24 18.5733 17.3333 16 17.3333C13.4266 17.3333 11.3333 15.24 11.3333 12.6666C11.3333 10.0933 13.4266 7.99996 16 7.99996ZM16 26.6666C13.2933 26.6666 10.0933 25.5733 7.81329 22.8266C10.0666 21.0666 12.9066 20 16 20C19.0933 20 21.9333 21.0666 24.1866 22.8266C21.9066 25.5733 18.7066 26.6666 16 26.6666Z" fill="white"/>
</svg>
