<svg width="25" height="24" viewBox="0 0 25 24" fill="none" xmlns="http://www.w3.org/2000/svg">
<g clip-path="url(#clip0_11_568)">
<path d="M18.9624 13H13.9624V18C13.9624 18.55 13.5124 19 12.9624 19C12.4124 19 11.9624 18.55 11.9624 18V13H6.9624C6.4124 13 5.9624 12.55 5.9624 12C5.9624 11.45 6.4124 11 6.9624 11H11.9624V6C11.9624 5.45 12.4124 5 12.9624 5C13.5124 5 13.9624 5.45 13.9624 6V11H18.9624C19.5124 11 19.9624 11.45 19.9624 12C19.9624 12.55 19.5124 13 18.9624 13Z" fill="#E3E3E3"/>
</g>
<defs>
<clipPath id="clip0_11_568">
<rect width="24" height="24" fill="white" transform="translate(0.962402)"/>
</clipPath>
</defs>
</svg>
