<svg width="25" height="24" viewBox="0 0 25 24" fill="none" xmlns="http://www.w3.org/2000/svg">
<g clip-path="url(#clip0_18_397)">
<path d="M8.15013 21.7502C17.2045 21.7502 22.1583 14.2469 22.1583 7.74211C22.1583 7.53117 22.1536 7.31554 22.1442 7.1046C23.1079 6.40771 23.9395 5.5445 24.6 4.55554C23.7025 4.95484 22.7496 5.21563 21.7739 5.32898C22.8013 4.71315 23.5705 3.74572 23.939 2.60601C22.9725 3.1788 21.9156 3.58286 20.8134 3.80085C20.0708 3.01181 19.089 2.48936 18.0197 2.3143C16.9504 2.13923 15.8532 2.32129 14.8977 2.83234C13.9423 3.34339 13.1818 4.15495 12.7338 5.14156C12.2859 6.12816 12.1754 7.23486 12.4195 8.29054C10.4625 8.19233 8.54791 7.68395 6.79996 6.79834C5.052 5.91274 3.50967 4.66968 2.27294 3.14976C1.64438 4.23349 1.45203 5.51589 1.73501 6.73634C2.01798 7.95678 2.75504 9.02369 3.79638 9.72023C3.0146 9.69541 2.24995 9.48492 1.5656 9.10617V9.1671C1.5649 10.3044 1.95807 11.4068 2.67829 12.287C3.3985 13.1672 4.4013 13.7708 5.51623 13.9952C4.79203 14.1934 4.03196 14.2222 3.29482 14.0796C3.60943 15.0577 4.22155 15.9131 5.04575 16.5266C5.86994 17.14 6.8651 17.4808 7.89232 17.5015C6.1484 18.8714 3.99415 19.6144 1.77654 19.6109C1.38326 19.6103 0.990375 19.5861 0.599976 19.5387C2.85283 20.984 5.47351 21.7516 8.15013 21.7502Z" fill="white"/>
</g>
<defs>
<clipPath id="clip0_18_397">
<rect width="24" height="24" fill="white" transform="translate(0.599976)"/>
</clipPath>
</defs>
</svg>
