<svg width="28" height="28" viewBox="0 0 28 28" fill="none" xmlns="http://www.w3.org/2000/svg">
<path d="M7.738 11.9583C8.67874 11.9583 9.52756 11.4381 10.1081 10.6979C11.0101 9.54773 12.147 8.59055 13.4465 7.8985C14.289 7.44982 15.02 6.78325 15.3745 5.89699C15.6226 5.27686 15.75 4.6151 15.75 3.94719V3.20825C15.75 2.725 16.1418 2.33325 16.625 2.33325C18.0747 2.33325 19.25 3.5085 19.25 4.95825C19.25 6.30182 18.9472 7.57466 18.4061 8.71224C18.0962 9.36363 18.5309 10.2083 19.2522 10.2083M19.2522 10.2083H22.899C24.0968 10.2083 25.1689 11.0179 25.2957 12.2089C25.3481 12.7015 25.375 13.2017 25.375 13.7083C25.375 17.0305 24.2178 20.0824 22.2845 22.483C21.8323 23.0445 21.1332 23.3333 20.4123 23.3333H15.727C15.1627 23.3333 14.6021 23.2423 14.0668 23.0638L10.4332 21.8527C9.89791 21.6742 9.33732 21.5833 8.77304 21.5833H6.88824M19.2522 10.2083H16.625M6.88824 21.5833C6.98485 21.8219 7.08999 22.0562 7.20327 22.2858C7.43326 22.7519 7.11223 23.3333 6.59245 23.3333H5.53337C4.49654 23.3333 3.5349 22.7289 3.23232 21.7372C2.83743 20.443 2.625 19.0692 2.625 17.6458C2.625 15.8345 2.96894 14.1037 3.59507 12.5149C3.95097 11.6118 4.86189 11.0833 5.83258 11.0833H7.0608C7.61138 11.0833 7.93019 11.7318 7.64435 12.2024C6.6802 13.7897 6.125 15.6529 6.125 17.6458C6.125 19.0382 6.39604 20.3673 6.88824 21.5833Z" stroke="white" stroke-width="2" stroke-linecap="round" stroke-linejoin="round"/>
</svg>
