<svg width="24" height="25" viewBox="0 0 24 25" fill="none" xmlns="http://www.w3.org/2000/svg">
<path d="M11.4807 3.99883C11.6729 3.53685 12.3273 3.53685 12.5195 3.99883L14.6454 9.11028C14.7264 9.30504 14.9096 9.43811 15.1199 9.45497L20.6381 9.89736C21.1369 9.93735 21.3391 10.5598 20.9591 10.8853L16.7548 14.4867C16.5946 14.6239 16.5246 14.8392 16.5736 15.0444L17.858 20.4293C17.9741 20.916 17.4447 21.3007 17.0177 21.0398L12.2933 18.1542C12.1133 18.0443 11.8869 18.0443 11.7069 18.1542L6.98251 21.0398C6.55551 21.3007 6.02606 20.916 6.14215 20.4293L7.42664 15.0444C7.47558 14.8392 7.40562 14.6239 7.24543 14.4867L3.04111 10.8853C2.66112 10.5598 2.86335 9.93735 3.36209 9.89736L8.88034 9.45497C9.0906 9.43811 9.27375 9.30504 9.35476 9.11028L11.4807 3.99883Z" stroke="#999999" stroke-width="1.5" stroke-linecap="round" stroke-linejoin="round"/>
</svg>
